<svg preserveAspectRatio="none" overflow="visible" style="display: block;" width="19.9958" height="19.9958" viewBox="0 0 19.9958 19.9958" fill="none" xmlns="http://www.w3.org/2000/svg">
<g id="Icon" clip-path="url(#clip0_0_38)">
<path id="Vector" d="M9.9979 1.66632C9.335 1.66632 8.69925 1.92965 8.2305 2.3984C7.76176 2.86714 7.49843 3.50289 7.49843 4.16579V9.9979C7.49843 10.6608 7.76176 11.2966 8.2305 11.7653C8.69925 12.234 9.335 12.4974 9.9979 12.4974C10.6608 12.4974 11.2966 12.234 11.7653 11.7653C12.234 11.2966 12.4974 10.6608 12.4974 9.9979V4.16579C12.4974 3.50289 12.234 2.86714 11.7653 2.3984C11.2966 1.92965 10.6608 1.66632 9.9979 1.66632Z" stroke="white" stroke-width="1.66632" stroke-linecap="round" stroke-linejoin="round"/>
<path id="Vector_2" d="M15.83 8.33158V9.9979C15.83 11.5447 15.2156 13.0281 14.1218 14.1218C13.0281 15.2156 11.5447 15.83 9.9979 15.83C8.45113 15.83 6.96771 15.2156 5.87398 14.1218C4.78024 13.0281 4.16579 11.5447 4.16579 9.9979V8.33158" stroke="white" stroke-width="1.66632" stroke-linecap="round" stroke-linejoin="round"/>
<path id="Vector_3" d="M9.9979 15.83V18.3295" stroke="white" stroke-width="1.66632" stroke-linecap="round" stroke-linejoin="round"/>
</g>
<defs>
<clipPath id="clip0_0_38">
<rect width="19.9958" height="19.9958" fill="white"/>
</clipPath>
</defs>
</svg>
