<svg preserveAspectRatio="none" overflow="visible" style="display: block;" width="18.9968" height="18.9968" viewBox="0 0 18.9968 18.9968" fill="none" xmlns="http://www.w3.org/2000/svg">
<g id="Icon" clip-path="url(#clip0_0_14)">
<path id="Vector" d="M11.873 1.58307H4.7492C4.32934 1.58307 3.92669 1.74985 3.6298 2.04674C3.33292 2.34362 3.16613 2.74628 3.16613 3.16613V15.8307C3.16613 16.2505 3.33292 16.6532 3.6298 16.9501C3.92669 17.2469 4.32934 17.4137 4.7492 17.4137H14.2476C14.6675 17.4137 15.0701 17.2469 15.367 16.9501C15.6639 16.6532 15.8307 16.2505 15.8307 15.8307V5.54073L11.873 1.58307Z" stroke="#C27B00" stroke-width="1.58307" stroke-linecap="round" stroke-linejoin="round"/>
<path id="Vector_2" d="M11.0815 1.58307V4.7492C11.0815 5.16906 11.2483 5.57171 11.5451 5.8686C11.842 6.16548 12.2447 6.33227 12.6645 6.33227H15.8307" stroke="#C27B00" stroke-width="1.58307" stroke-linecap="round" stroke-linejoin="round"/>
<path id="Vector_3" d="M7.91533 7.1238H6.33227" stroke="#C27B00" stroke-width="1.58307" stroke-linecap="round" stroke-linejoin="round"/>
<path id="Vector_4" d="M12.6645 10.2899H6.33227" stroke="#C27B00" stroke-width="1.58307" stroke-linecap="round" stroke-linejoin="round"/>
<path id="Vector_5" d="M12.6645 13.4561H6.33227" stroke="#C27B00" stroke-width="1.58307" stroke-linecap="round" stroke-linejoin="round"/>
</g>
<defs>
<clipPath id="clip0_0_14">
<rect width="18.9968" height="18.9968" fill="white"/>
</clipPath>
</defs>
</svg>
